# xmcd CD database file
#
# Track frame offsets:
#	150
#	12644
#	29181
#	40690
#	57064
#	79460
#	93897
#	110876
#	123220
#	141577
#	157024
#	171949
#	188539
#	208224
#	223129
#	244016
#	274686
#	298381
#	310284
#	332921
#	347921
#
# Disc length: 4849 seconds
#
# Revision: 0
# Processed by: cddbd v1.5.1PL0 Copyright (c) Steve Scherf et al.
# Submitted via: CDex 1.51
#
DISCID=5412ef15
DTITLE=Iris Dement - Infamous Angel (1-11) My Life (12-21)
DYEAR=1900
DGENRE=Country
TTITLE0=01-Let The Mystery Be
TTITLE1=02-These Hills
TTITLE2=03-Hotter Than Mojave in My Heart
TTITLE3=04-When Love Was Young
TTITLE4=05-Our Town
TTITLE5=06-Fifty Miles of Elbow Room
TTITLE6=07-Infamous Angel
TTITLE7=08-Sweet Forgiveness
TTITLE8=09-After You're Gone
TTITLE9=10-Mama's Opry
TTITLE10=11-Higher Ground
TTITLE11=01-Sweet Is The Melody
TTITLE12=02-You've Done Nothing Wrong
TTITLE13=03-Calling For You
TTITLE14=04-Childhood Memories
TTITLE15=05-No Time To Cry
TTITLE16=06-Troublesome Waters
TTITLE17=07-Mom and Dad's Waltz
TTITLE18=08-Easy's Gettin' Harder Every Day
TTITLE19=09-The Shores Of Jordan
TTITLE20=10-My Life
EXTD=
EXTT0=
EXTT1=
EXTT2=
EXTT3=
EXTT4=
EXTT5=
EXTT6=
EXTT7=
EXTT8=
EXTT9=
EXTT10=
EXTT11=
EXTT12=
EXTT13=
EXTT14=
EXTT15=
EXTT16=
EXTT17=
EXTT18=
EXTT19=
EXTT20=
PLAYORDER=
